<!DOCTYPE svg PUBLIC "-//W3C//DTD SVG 1.1//EN" "http://www.w3.org/Graphics/SVG/1.1/DTD/svg11.dtd">
<!-- Uploaded to: SVG Repo, www.svgrepo.com, Transformed by: SVG Repo Mixer Tools -->
<svg version="1.1" id="Layer_1" xmlns="http://www.w3.org/2000/svg" xmlns:xlink="http://www.w3.org/1999/xlink" viewBox="0 0 512 512" xml:space="preserve" width="800px" height="800px" fill="#000000">
<g id="SVGRepo_bgCarrier" stroke-width="0"/>
<g id="SVGRepo_tracerCarrier" stroke-linecap="round" stroke-linejoin="round"/>
<g id="SVGRepo_iconCarrier"> <rect style="fill:#5353fd;" width="512" height="512"/> <rect x="256" style="fill:#3cc2fb;" width="256" height="512"/> <path style="fill:#090939;" d="M384,228.571v-54.857h-45.714V128h-54.857v45.714h-54.857V128h-54.857v45.714H128v54.857h45.714 v54.857H128v54.857h45.714V384h54.857v-45.714h54.857V384h54.857v-45.714H384v-54.857h-45.714v-54.857H384z M283.429,283.429 h-54.857v-54.857h54.857V283.429z"/> <polygon style="fill:#090939;" points="384,228.571 384,173.714 338.286,173.714 338.286,128 283.429,128 283.429,173.714 256,173.714 256,228.571 283.429,228.571 283.429,283.429 256,283.429 256,338.286 283.429,338.286 283.429,384 338.286,384 338.286,338.286 384,338.286 384,283.429 338.286,283.429 338.286,228.571 "/> </g>
</svg>